<mxfile host="Electron" modified="2023-05-03T01:15:27.910Z" agent="Mozilla/5.0 (Macintosh; Intel Mac OS X 10_15_7) AppleWebKit/537.36 (KHTML, like Gecko) draw.io/21.2.1 Chrome/112.0.5615.87 Electron/24.1.2 Safari/537.36" etag="yOzKlH-7oKFl8mLlHALm" version="21.2.1" type="device">
  <diagram id="-0XSBVRjiPrgKGbRNEii" name="Page-1">
    <mxGraphModel dx="2937" dy="1037" grid="1" gridSize="10" guides="1" tooltips="1" connect="1" arrows="1" fold="1" page="1" pageScale="1" pageWidth="1100" pageHeight="850" math="0" shadow="0">
      <root>
        <mxCell id="0" />
        <mxCell id="1" parent="0" />
        <mxCell id="uSebuR8uI-QDN-vtXV9K-39" value="Node&lt;br&gt;&lt;br&gt;&lt;br&gt;&lt;br&gt;&lt;br&gt;&lt;br&gt;&lt;br&gt;&lt;br&gt;&lt;br&gt;&lt;br&gt;&lt;br&gt;&lt;br&gt;&lt;br&gt;&lt;br&gt;&lt;br&gt;&lt;br&gt;" style="rounded=0;whiteSpace=wrap;html=1;fontSize=40;" parent="1" vertex="1">
          <mxGeometry x="-970" y="25" width="680" height="800" as="geometry" />
        </mxCell>
        <mxCell id="uSebuR8uI-QDN-vtXV9K-38" value="&lt;font color=&quot;#000000&quot;&gt;Hardware&lt;br&gt;&lt;br&gt;&lt;br&gt;&lt;br&gt;&lt;br&gt;&lt;br&gt;&lt;br&gt;&lt;/font&gt;" style="rounded=0;whiteSpace=wrap;html=1;fontSize=18;fillColor=#dae8fc;strokeColor=#6c8ebf;" parent="1" vertex="1">
          <mxGeometry x="-930" y="105" width="200" height="200" as="geometry" />
        </mxCell>
        <mxCell id="uSebuR8uI-QDN-vtXV9K-49" style="edgeStyle=orthogonalEdgeStyle;rounded=0;orthogonalLoop=1;jettySize=auto;html=1;exitX=0;exitY=0.75;exitDx=0;exitDy=0;entryX=1;entryY=0.5;entryDx=0;entryDy=0;" parent="1" source="uSebuR8uI-QDN-vtXV9K-24" target="uSebuR8uI-QDN-vtXV9K-23" edge="1">
          <mxGeometry relative="1" as="geometry" />
        </mxCell>
        <mxCell id="uSebuR8uI-QDN-vtXV9K-50" style="edgeStyle=orthogonalEdgeStyle;rounded=0;orthogonalLoop=1;jettySize=auto;html=1;exitX=0;exitY=0.25;exitDx=0;exitDy=0;entryX=1;entryY=0.5;entryDx=0;entryDy=0;" parent="1" source="uSebuR8uI-QDN-vtXV9K-24" target="uSebuR8uI-QDN-vtXV9K-26" edge="1">
          <mxGeometry relative="1" as="geometry" />
        </mxCell>
        <mxCell id="uSebuR8uI-QDN-vtXV9K-52" style="edgeStyle=orthogonalEdgeStyle;rounded=0;orthogonalLoop=1;jettySize=auto;html=1;exitX=0;exitY=0.5;exitDx=0;exitDy=0;entryX=1;entryY=0.25;entryDx=0;entryDy=0;" parent="1" source="uSebuR8uI-QDN-vtXV9K-24" target="uSebuR8uI-QDN-vtXV9K-28" edge="1">
          <mxGeometry relative="1" as="geometry" />
        </mxCell>
        <mxCell id="uSebuR8uI-QDN-vtXV9K-24" value="&lt;font style=&quot;font-size: 30px;&quot;&gt;Controller&lt;br&gt;&lt;br&gt;&lt;br&gt;&lt;br&gt;&lt;br&gt;&lt;br&gt;&lt;br&gt;&lt;br&gt;&lt;br&gt;&lt;br&gt;&lt;br&gt;&lt;br&gt;&lt;br&gt;&lt;br&gt;&lt;br&gt;&lt;br&gt;&lt;br&gt;&lt;br&gt;&lt;/font&gt;" style="rounded=0;whiteSpace=wrap;html=1;fontSize=18;fillColor=#A20025;fontColor=#000000;strokeColor=#C73500;gradientColor=#66FFFF;gradientDirection=north;" parent="1" vertex="1">
          <mxGeometry x="-690" y="105" width="360" height="680" as="geometry" />
        </mxCell>
        <mxCell id="uSebuR8uI-QDN-vtXV9K-21" value="&lt;font style=&quot;&quot;&gt;&lt;font style=&quot;&quot;&gt;&lt;font style=&quot;font-size: 40px;&quot;&gt;Hub&lt;/font&gt;&lt;br&gt;&lt;/font&gt;&lt;br&gt;&lt;br&gt;&lt;br&gt;&lt;br&gt;&lt;br&gt;&lt;br&gt;&lt;br&gt;&lt;br&gt;&lt;br&gt;&lt;br&gt;&lt;br&gt;&lt;br&gt;&lt;br&gt;&lt;br&gt;&lt;br&gt;&lt;br&gt;&lt;br&gt;&lt;br&gt;&lt;br&gt;&lt;br&gt;&lt;br&gt;&lt;br&gt;&lt;br&gt;&lt;br&gt;&lt;br&gt;&lt;br&gt;&lt;br&gt;&lt;br&gt;&lt;br&gt;&lt;br&gt;&lt;br&gt;&lt;br&gt;&lt;br&gt;&lt;br&gt;&lt;br&gt;&lt;br&gt;&lt;br&gt;&lt;br&gt;&lt;br&gt;&lt;br&gt;&lt;br&gt;&lt;br&gt;&lt;br&gt;&lt;br&gt;&lt;br&gt;&lt;br&gt;&lt;br&gt;&lt;br&gt;&lt;/font&gt;" style="rounded=0;whiteSpace=wrap;html=1;" parent="1" vertex="1">
          <mxGeometry x="-210" y="25" width="1160" height="800" as="geometry" />
        </mxCell>
        <mxCell id="uSebuR8uI-QDN-vtXV9K-19" value="&lt;font style=&quot;font-size: 30px;&quot;&gt;Backend&lt;br&gt;&lt;br&gt;&lt;br&gt;&lt;br&gt;&lt;br&gt;&lt;br&gt;&lt;br&gt;&lt;br&gt;&lt;br&gt;&lt;br&gt;&lt;br&gt;&lt;br&gt;&lt;br&gt;&lt;/font&gt;" style="rounded=0;whiteSpace=wrap;html=1;" parent="1" vertex="1">
          <mxGeometry x="30" y="145" width="680" height="515" as="geometry" />
        </mxCell>
        <mxCell id="v-hBCDAlCnu_aI6ECuMW-2" value="&lt;font style=&quot;font-size: 32px;&quot;&gt;DB&lt;/font&gt;" style="rounded=0;whiteSpace=wrap;html=1;fillColor=#1ba1e2;fontColor=#ffffff;strokeColor=#006EAF;" parent="1" vertex="1">
          <mxGeometry x="-170" y="145" width="160" height="520" as="geometry" />
        </mxCell>
        <mxCell id="uSebuR8uI-QDN-vtXV9K-44" style="edgeStyle=orthogonalEdgeStyle;rounded=0;orthogonalLoop=1;jettySize=auto;html=1;exitX=0;exitY=0.5;exitDx=0;exitDy=0;entryX=1;entryY=0.25;entryDx=0;entryDy=0;" parent="1" source="v-hBCDAlCnu_aI6ECuMW-3" target="v-hBCDAlCnu_aI6ECuMW-2" edge="1">
          <mxGeometry relative="1" as="geometry">
            <Array as="points">
              <mxPoint x="50" y="365" />
              <mxPoint x="50" y="275" />
            </Array>
          </mxGeometry>
        </mxCell>
        <mxCell id="v-hBCDAlCnu_aI6ECuMW-3" value="&lt;font style=&quot;font-size: 18px;&quot;&gt;System&lt;/font&gt;" style="rounded=0;whiteSpace=wrap;html=1;fillColor=#008a00;strokeColor=#005700;fontColor=#ffffff;" parent="1" vertex="1">
          <mxGeometry x="70" y="225" width="400" height="280" as="geometry" />
        </mxCell>
        <mxCell id="uSebuR8uI-QDN-vtXV9K-42" style="edgeStyle=orthogonalEdgeStyle;rounded=0;orthogonalLoop=1;jettySize=auto;html=1;exitX=0;exitY=0.5;exitDx=0;exitDy=0;entryX=1;entryY=0.25;entryDx=0;entryDy=0;" parent="1" source="v-hBCDAlCnu_aI6ECuMW-6" target="v-hBCDAlCnu_aI6ECuMW-3" edge="1">
          <mxGeometry relative="1" as="geometry" />
        </mxCell>
        <mxCell id="v-hBCDAlCnu_aI6ECuMW-6" value="&lt;font style=&quot;font-size: 18px;&quot;&gt;Server&lt;/font&gt;" style="rounded=0;whiteSpace=wrap;html=1;fillColor=#f0a30a;strokeColor=#BD7000;fontColor=#000000;" parent="1" vertex="1">
          <mxGeometry x="510" y="225" width="160" height="120" as="geometry" />
        </mxCell>
        <mxCell id="uSebuR8uI-QDN-vtXV9K-41" style="edgeStyle=orthogonalEdgeStyle;rounded=0;orthogonalLoop=1;jettySize=auto;html=1;exitX=0;exitY=0.5;exitDx=0;exitDy=0;entryX=1;entryY=0.75;entryDx=0;entryDy=0;" parent="1" source="v-hBCDAlCnu_aI6ECuMW-7" target="v-hBCDAlCnu_aI6ECuMW-3" edge="1">
          <mxGeometry relative="1" as="geometry" />
        </mxCell>
        <mxCell id="v-hBCDAlCnu_aI6ECuMW-7" value="&lt;font style=&quot;font-size: 18px;&quot;&gt;Manager&lt;/font&gt;" style="rounded=0;whiteSpace=wrap;html=1;fillColor=#60a917;strokeColor=#2D7600;fontColor=#ffffff;" parent="1" vertex="1">
          <mxGeometry x="510" y="385" width="160" height="120" as="geometry" />
        </mxCell>
        <mxCell id="uSebuR8uI-QDN-vtXV9K-43" style="edgeStyle=orthogonalEdgeStyle;rounded=0;orthogonalLoop=1;jettySize=auto;html=1;exitX=0;exitY=0.25;exitDx=0;exitDy=0;entryX=1;entryY=0.5;entryDx=0;entryDy=0;" parent="1" source="bBCCTO8IeN6LDwdV3KIY-2" target="v-hBCDAlCnu_aI6ECuMW-6" edge="1">
          <mxGeometry relative="1" as="geometry">
            <Array as="points">
              <mxPoint x="730" y="295" />
              <mxPoint x="730" y="285" />
            </Array>
          </mxGeometry>
        </mxCell>
        <mxCell id="bBCCTO8IeN6LDwdV3KIY-2" value="Frontend" style="rounded=0;whiteSpace=wrap;html=1;fontSize=32;fillColor=#e51400;strokeColor=#B20000;fontColor=#ffffff;" parent="1" vertex="1">
          <mxGeometry x="750" y="225" width="160" height="280" as="geometry" />
        </mxCell>
        <mxCell id="uSebuR8uI-QDN-vtXV9K-1" value="&lt;font style=&quot;font-size: 32px;&quot;&gt;MQTT Broker&lt;/font&gt;" style="rounded=0;whiteSpace=wrap;html=1;fillColor=#6a00ff;fontColor=#ffffff;strokeColor=#3700CC;" parent="1" vertex="1">
          <mxGeometry x="-170" y="705" width="1080" height="80" as="geometry" />
        </mxCell>
        <mxCell id="uSebuR8uI-QDN-vtXV9K-4" value="&lt;font style=&quot;font-size: 18px;&quot;&gt;MQTT Client&lt;/font&gt;" style="rounded=0;whiteSpace=wrap;html=1;fillColor=#0050ef;strokeColor=#001DBC;fontColor=#ffffff;" parent="1" vertex="1">
          <mxGeometry x="70" y="545" width="400" height="80" as="geometry" />
        </mxCell>
        <mxCell id="uSebuR8uI-QDN-vtXV9K-22" value="&lt;font style=&quot;font-size: 18px;&quot;&gt;MQTT Client&lt;/font&gt;" style="rounded=0;whiteSpace=wrap;html=1;fillColor=#A20025;strokeColor=#6F0000;fontColor=#ffffff;gradientColor=#CCFFE6;gradientDirection=north;" parent="1" vertex="1">
          <mxGeometry x="-650" y="425" width="280" height="320" as="geometry" />
        </mxCell>
        <mxCell id="uSebuR8uI-QDN-vtXV9K-23" value="Curtain&lt;br&gt;Data" style="rounded=0;whiteSpace=wrap;html=1;fontSize=18;fillColor=#e3c800;fontColor=#000000;strokeColor=#B09500;" parent="1" vertex="1">
          <mxGeometry x="-930" y="585" width="200" height="200" as="geometry" />
        </mxCell>
        <mxCell id="uSebuR8uI-QDN-vtXV9K-25" value="Motor" style="rounded=0;whiteSpace=wrap;html=1;fontSize=18;fillColor=#0050ef;fontColor=#ffffff;strokeColor=#001DBC;" parent="1" vertex="1">
          <mxGeometry x="-910" y="185" width="70" height="100" as="geometry" />
        </mxCell>
        <mxCell id="uSebuR8uI-QDN-vtXV9K-26" value="Endstop" style="rounded=0;whiteSpace=wrap;html=1;fontSize=18;fillColor=#1ba1e2;fontColor=#ffffff;strokeColor=#006EAF;" parent="1" vertex="1">
          <mxGeometry x="-820" y="185" width="70" height="100" as="geometry" />
        </mxCell>
        <mxCell id="uSebuR8uI-QDN-vtXV9K-53" style="edgeStyle=orthogonalEdgeStyle;rounded=0;orthogonalLoop=1;jettySize=auto;html=1;exitX=1;exitY=0.75;exitDx=0;exitDy=0;entryX=0;entryY=0.5;entryDx=0;entryDy=0;" parent="1" source="uSebuR8uI-QDN-vtXV9K-28" target="uSebuR8uI-QDN-vtXV9K-22" edge="1">
          <mxGeometry relative="1" as="geometry">
            <Array as="points">
              <mxPoint x="-710" y="495" />
              <mxPoint x="-710" y="585" />
            </Array>
          </mxGeometry>
        </mxCell>
        <mxCell id="uSebuR8uI-QDN-vtXV9K-54" style="edgeStyle=orthogonalEdgeStyle;rounded=0;orthogonalLoop=1;jettySize=auto;html=1;exitX=0.75;exitY=0;exitDx=0;exitDy=0;entryX=0.5;entryY=1;entryDx=0;entryDy=0;" parent="1" source="uSebuR8uI-QDN-vtXV9K-28" target="uSebuR8uI-QDN-vtXV9K-26" edge="1">
          <mxGeometry relative="1" as="geometry" />
        </mxCell>
        <mxCell id="uSebuR8uI-QDN-vtXV9K-55" style="edgeStyle=orthogonalEdgeStyle;rounded=0;orthogonalLoop=1;jettySize=auto;html=1;exitX=0.25;exitY=0;exitDx=0;exitDy=0;entryX=0.5;entryY=1;entryDx=0;entryDy=0;" parent="1" source="uSebuR8uI-QDN-vtXV9K-28" target="uSebuR8uI-QDN-vtXV9K-25" edge="1">
          <mxGeometry relative="1" as="geometry" />
        </mxCell>
        <mxCell id="uSebuR8uI-QDN-vtXV9K-28" value="Movement&lt;br&gt;Thread" style="rounded=0;whiteSpace=wrap;html=1;fontSize=18;fillColor=#60a917;fontColor=#ffffff;strokeColor=#2D7600;" parent="1" vertex="1">
          <mxGeometry x="-930" y="345" width="200" height="200" as="geometry" />
        </mxCell>
        <mxCell id="uSebuR8uI-QDN-vtXV9K-46" value="" style="endArrow=classic;startArrow=classic;html=1;rounded=0;entryX=0.5;entryY=1;entryDx=0;entryDy=0;exitX=0.5;exitY=0;exitDx=0;exitDy=0;" parent="1" source="uSebuR8uI-QDN-vtXV9K-4" target="v-hBCDAlCnu_aI6ECuMW-3" edge="1">
          <mxGeometry width="50" height="50" relative="1" as="geometry">
            <mxPoint x="-20" y="415" as="sourcePoint" />
            <mxPoint x="30" y="365" as="targetPoint" />
          </mxGeometry>
        </mxCell>
        <mxCell id="uSebuR8uI-QDN-vtXV9K-47" value="" style="endArrow=classic;startArrow=classic;html=1;rounded=0;entryX=0.5;entryY=1;entryDx=0;entryDy=0;exitX=0.5;exitY=0;exitDx=0;exitDy=0;edgeStyle=orthogonalEdgeStyle;" parent="1" source="uSebuR8uI-QDN-vtXV9K-1" target="uSebuR8uI-QDN-vtXV9K-4" edge="1">
          <mxGeometry width="50" height="50" relative="1" as="geometry">
            <mxPoint x="-20" y="415" as="sourcePoint" />
            <mxPoint x="30" y="365" as="targetPoint" />
            <Array as="points">
              <mxPoint x="370" y="645" />
              <mxPoint x="270" y="645" />
            </Array>
          </mxGeometry>
        </mxCell>
        <mxCell id="uSebuR8uI-QDN-vtXV9K-48" value="" style="endArrow=classic;startArrow=classic;html=1;rounded=0;exitX=1;exitY=0.5;exitDx=0;exitDy=0;entryX=0;entryY=0.5;entryDx=0;entryDy=0;edgeStyle=orthogonalEdgeStyle;" parent="1" source="uSebuR8uI-QDN-vtXV9K-22" target="uSebuR8uI-QDN-vtXV9K-1" edge="1">
          <mxGeometry width="50" height="50" relative="1" as="geometry">
            <mxPoint x="-20" y="415" as="sourcePoint" />
            <mxPoint x="30" y="365" as="targetPoint" />
            <Array as="points">
              <mxPoint x="-250" y="585" />
              <mxPoint x="-250" y="745" />
            </Array>
          </mxGeometry>
        </mxCell>
      </root>
    </mxGraphModel>
  </diagram>
</mxfile>
